# xmcd
#
# Track frame offsets:
#	150
#	25748
#	50386
#	70952
#	96142
#	123612
#	147794
#	174192
#	200622
#	220308
#
# Disc length: 3294 seconds
#
# Revision: 1
# Processed by: cddbd v1.5.2PL0 Copyright (c) Steve Scherf et al.
# Submitted via: EZCDAudioConverter 8.0.2.1
#
DISCID=8e0cdc0a
DTITLE=Thanh Lam, Hồng Nhung - st. Trần Viết Tân. Nợ
DYEAR=2006
DGENRE=Contemporary Pop
TTITLE0=Hồng Nhung - Ấm nồng
TTITLE1=Thanh Lam - Nất chợt
TTITLE2=Hồng Nhung - Em Hồng Nhung rất lạ
TTITLE3=Thanh Lam - Đêm Hà Nội nhớ
TTITLE4=Hồng Nhung - Hà Nội em
TTITLE5=Thanh Lam - Em không nhớ anh đâu
TTITLE6=Hồng Nhung - À ơi tay mẹ
TTITLE7=Thanh Lam - Nợ
TTITLE8=Viết Tân - Anh về
TTITLE9=Viết Tân - Tình đôi khi muộn
EXTD=
EXTT0=
EXTT1=
EXTT2=
EXTT3=
EXTT4=
EXTT5=
EXTT6=
EXTT7=
EXTT8=
EXTT9=
PLAYORDER=
